<svg width="800" height="50" viewBox="0 0 800 50" fill="none" xmlns="http://www.w3.org/2000/svg">
<g clip-path="url(#clip0)">
<path fill-rule="evenodd" clip-rule="evenodd" d="M0.5 0.5H799.5V49.5H0.5V0.5Z" fill="white" stroke="#BBBBBB"/>
<path d="M69.355 18.185H70.525V30.59H69.355V25.94H66.925V24.935H69.355V22.565H67.135C66.815 23.705 66.28 24.77 65.53 25.76C64.79 26.74 63.78 27.61 62.5 28.37L61.78 27.5C63.24 26.63 64.335 25.61 65.065 24.44C65.795 23.26 66.215 21.96 66.325 20.54H62.38V19.535H67.54C67.54 20.225 67.48 20.905 67.36 21.575H69.355V18.185ZM73.225 17.825V31.265H72.055V17.825H73.225Z" fill="#888888"/>
<path d="M77.0489 21.815C77.0489 22.135 77.1039 22.425 77.2139 22.685C77.3339 22.945 77.4939 23.17 77.6939 23.36C77.9039 23.55 78.1489 23.7 78.4289 23.81C78.7089 23.91 79.0189 23.96 79.3589 23.96C79.6889 23.96 79.9939 23.91 80.2739 23.81C80.5639 23.7 80.8089 23.55 81.0089 23.36C81.2189 23.17 81.3789 22.945 81.4889 22.685C81.6089 22.425 81.6689 22.135 81.6689 21.815C81.6689 21.495 81.6089 21.205 81.4889 20.945C81.3789 20.675 81.2189 20.45 81.0089 20.27C80.8089 20.08 80.5639 19.935 80.2739 19.835C79.9939 19.725 79.6889 19.67 79.3589 19.67C79.0189 19.67 78.7089 19.725 78.4289 19.835C78.1489 19.935 77.9039 20.08 77.6939 20.27C77.4939 20.45 77.3339 20.675 77.2139 20.945C77.1039 21.205 77.0489 21.495 77.0489 21.815ZM82.8689 21.815C82.8689 22.285 82.7789 22.715 82.5989 23.105C82.4289 23.495 82.1839 23.83 81.8639 24.11C81.5539 24.39 81.1839 24.61 80.7539 24.77C80.3339 24.92 79.8689 24.995 79.3589 24.995C78.8489 24.995 78.3789 24.92 77.9489 24.77C77.5189 24.61 77.1489 24.39 76.8389 24.11C76.5289 23.83 76.2839 23.495 76.1039 23.105C75.9339 22.715 75.8489 22.285 75.8489 21.815C75.8489 21.345 75.9339 20.915 76.1039 20.525C76.2839 20.135 76.5289 19.8 76.8389 19.52C77.1489 19.24 77.5189 19.025 77.9489 18.875C78.3789 18.715 78.8489 18.635 79.3589 18.635C79.8689 18.635 80.3339 18.715 80.7539 18.875C81.1839 19.025 81.5539 19.24 81.8639 19.52C82.1839 19.8 82.4289 20.135 82.5989 20.525C82.7789 20.915 82.8689 21.345 82.8689 21.815ZM77.2889 26.45H86.0339V31.28H84.8039V27.455H77.2889V26.45ZM86.0339 20.9V22.76H87.9989V23.765H86.0339V25.82H84.8039V17.84H86.0339V19.88H87.9989V20.9H86.0339Z" fill="#888888"/>
<path d="M92.0927 30.11H98.8577V27.305H92.0927V30.11ZM90.8927 26.315H100.073V31.1H90.8927V26.315ZM101.603 23.495V24.485H89.3777V23.495H98.4227C98.6127 22.655 98.7227 21.92 98.7527 21.29C98.7927 20.65 98.8127 20.065 98.8127 19.535H90.9377V18.545H100.028V19.535C100.028 20.065 100.013 20.645 99.9827 21.275C99.9527 21.905 99.8477 22.645 99.6677 23.495H101.603Z" fill="#888888"/>
<path d="M105.982 32.315C105.292 31.195 104.752 30.015 104.362 28.775C103.972 27.535 103.777 26.175 103.777 24.695C103.777 23.225 103.972 21.87 104.362 20.63C104.752 19.39 105.292 18.21 105.982 17.09L106.837 17.48C106.177 18.56 105.692 19.715 105.382 20.945C105.072 22.165 104.917 23.415 104.917 24.695C104.917 25.975 105.072 27.23 105.382 28.46C105.692 29.69 106.177 30.84 106.837 31.91L105.982 32.315Z" fill="#888888"/>
<path d="M115.355 29.06V30.17H109.415V29.06H111.86V21.53C111.86 21.42 111.86 21.295 111.86 21.155C111.86 21.005 111.865 20.875 111.875 20.765L109.88 22.55L109.145 21.665L112.1 19.115H113.195V29.06H115.355Z" fill="#888888"/>
<path d="M124.935 24.695C124.935 25.675 124.83 26.52 124.62 27.23C124.41 27.94 124.125 28.53 123.765 29C123.405 29.47 122.98 29.82 122.49 30.05C122 30.27 121.47 30.38 120.9 30.38C120.33 30.38 119.8 30.27 119.31 30.05C118.82 29.82 118.39 29.47 118.02 29C117.66 28.53 117.375 27.94 117.165 27.23C116.965 26.52 116.865 25.675 116.865 24.695C116.865 23.715 116.965 22.87 117.165 22.16C117.375 21.44 117.66 20.845 118.02 20.375C118.39 19.905 118.82 19.56 119.31 19.34C119.8 19.11 120.33 18.995 120.9 18.995C121.47 18.995 122 19.11 122.49 19.34C122.98 19.56 123.405 19.905 123.765 20.375C124.125 20.845 124.41 21.44 124.62 22.16C124.83 22.87 124.935 23.715 124.935 24.695ZM123.555 24.695C123.555 23.835 123.48 23.115 123.33 22.535C123.19 21.945 122.995 21.475 122.745 21.125C122.505 20.765 122.225 20.51 121.905 20.36C121.585 20.2 121.25 20.12 120.9 20.12C120.55 20.12 120.215 20.2 119.895 20.36C119.575 20.51 119.295 20.765 119.055 21.125C118.815 21.475 118.62 21.945 118.47 22.535C118.33 23.115 118.26 23.835 118.26 24.695C118.26 25.545 118.33 26.265 118.47 26.855C118.62 27.435 118.815 27.905 119.055 28.265C119.295 28.625 119.575 28.885 119.895 29.045C120.215 29.195 120.55 29.27 120.9 29.27C121.25 29.27 121.585 29.195 121.905 29.045C122.225 28.885 122.505 28.625 122.745 28.265C122.995 27.905 123.19 27.435 123.33 26.855C123.48 26.265 123.555 25.545 123.555 24.695Z" fill="#888888"/>
<path d="M128.411 25.625C127.651 25.625 127.041 25.345 126.581 24.785C126.131 24.225 125.906 23.385 125.906 22.265C125.906 21.145 126.131 20.315 126.581 19.775C127.041 19.225 127.651 18.95 128.411 18.95C129.181 18.95 129.796 19.225 130.256 19.775C130.716 20.315 130.946 21.145 130.946 22.265C130.946 23.385 130.716 24.225 130.256 24.785C129.796 25.345 129.181 25.625 128.411 25.625ZM128.411 24.695C128.831 24.695 129.171 24.505 129.431 24.125C129.691 23.745 129.821 23.125 129.821 22.265C129.821 21.405 129.691 20.795 129.431 20.435C129.171 20.065 128.831 19.88 128.411 19.88C128.001 19.88 127.666 20.065 127.406 20.435C127.146 20.805 127.016 21.415 127.016 22.265C127.016 23.125 127.146 23.745 127.406 24.125C127.666 24.505 128.001 24.695 128.411 24.695ZM134.681 18.95H135.866L129.806 30.35H128.606L134.681 18.95ZM136.031 30.32C135.271 30.32 134.656 30.045 134.186 29.495C133.726 28.935 133.496 28.095 133.496 26.975C133.496 25.855 133.726 25.025 134.186 24.485C134.656 23.935 135.271 23.66 136.031 23.66C136.791 23.66 137.401 23.935 137.861 24.485C138.321 25.025 138.551 25.855 138.551 26.975C138.551 28.095 138.321 28.935 137.861 29.495C137.401 30.045 136.791 30.32 136.031 30.32ZM136.031 29.39C136.451 29.39 136.786 29.205 137.036 28.835C137.296 28.455 137.426 27.835 137.426 26.975C137.426 26.115 137.296 25.5 137.036 25.13C136.786 24.76 136.451 24.575 136.031 24.575C135.611 24.575 135.271 24.76 135.011 25.13C134.751 25.5 134.621 26.115 134.621 26.975C134.621 27.835 134.751 28.455 135.011 28.835C135.271 29.205 135.611 29.39 136.031 29.39Z" fill="#888888"/>
<path d="M139.794 31.82C140.444 30.75 140.924 29.6 141.234 28.37C141.554 27.14 141.714 25.885 141.714 24.605C141.714 23.325 141.554 22.075 141.234 20.855C140.924 19.625 140.444 18.47 139.794 17.39L140.634 17C141.334 18.12 141.879 19.3 142.269 20.54C142.659 21.78 142.854 23.135 142.854 24.605C142.854 26.085 142.659 27.445 142.269 28.685C141.879 29.925 141.334 31.105 140.634 32.225L139.794 31.82Z" fill="#888888"/>
<path d="M270.485 22.34C271.075 22.27 271.64 22.15 272.18 21.98C272.73 21.81 273.215 21.6 273.635 21.35C274.055 21.09 274.395 20.8 274.655 20.48C274.915 20.15 275.06 19.8 275.09 19.43H270.92V18.44H280.865V19.43H276.68C276.71 19.8 276.855 20.15 277.115 20.48C277.375 20.8 277.715 21.09 278.135 21.35C278.555 21.6 279.035 21.81 279.575 21.98C280.125 22.15 280.695 22.27 281.285 22.34L280.85 23.315C280.3 23.245 279.765 23.135 279.245 22.985C278.735 22.825 278.26 22.63 277.82 22.4C277.39 22.17 277.005 21.9 276.665 21.59C276.335 21.28 276.075 20.94 275.885 20.57C275.705 20.94 275.445 21.28 275.105 21.59C274.775 21.9 274.39 22.17 273.95 22.4C273.52 22.63 273.045 22.825 272.525 22.985C272.005 23.135 271.47 23.245 270.92 23.315L270.485 22.34ZM279.23 28.895C279.23 28.445 278.935 28.1 278.345 27.86C277.755 27.61 276.93 27.485 275.87 27.485C274.81 27.485 273.985 27.61 273.395 27.86C272.805 28.1 272.51 28.445 272.51 28.895C272.51 29.345 272.805 29.695 273.395 29.945C273.985 30.195 274.81 30.32 275.87 30.32C276.93 30.32 277.755 30.195 278.345 29.945C278.935 29.695 279.23 29.345 279.23 28.895ZM276.5 25.115V26.555C277.76 26.615 278.735 26.845 279.425 27.245C280.125 27.645 280.475 28.195 280.475 28.895C280.475 29.665 280.07 30.25 279.26 30.65C278.45 31.06 277.325 31.265 275.885 31.265C274.445 31.265 273.315 31.06 272.495 30.65C271.675 30.25 271.265 29.665 271.265 28.895C271.265 28.195 271.615 27.645 272.315 27.245C273.015 26.845 273.995 26.615 275.255 26.555V25.115H269.795V24.125H281.96V25.115H276.5Z" fill="#888888"/>
<path d="M295.804 28.565V29.585H283.579V28.565H289.054V25.115H285.139V18.905H294.259V19.91H286.369V24.125H294.394V25.115H290.299V28.565H295.804Z" fill="#888888"/>
<path d="M300.093 30.11H306.858V27.305H300.093V30.11ZM298.893 26.315H308.073V31.1H298.893V26.315ZM309.603 23.495V24.485H297.378V23.495H306.423C306.613 22.655 306.723 21.92 306.753 21.29C306.793 20.65 306.813 20.065 306.813 19.535H298.938V18.545H308.028V19.535C308.028 20.065 308.013 20.645 307.983 21.275C307.953 21.905 307.848 22.645 307.668 23.495H309.603Z" fill="#888888"/>
<path d="M313.982 32.315C313.292 31.195 312.752 30.015 312.362 28.775C311.972 27.535 311.777 26.175 311.777 24.695C311.777 23.225 311.972 21.87 312.362 20.63C312.752 19.39 313.292 18.21 313.982 17.09L314.837 17.48C314.177 18.56 313.692 19.715 313.382 20.945C313.072 22.165 312.917 23.415 312.917 24.695C312.917 25.975 313.072 27.23 313.382 28.46C313.692 29.69 314.177 30.84 314.837 31.91L313.982 32.315Z" fill="#888888"/>
<path d="M319.905 29.21C320.265 29.21 320.595 29.15 320.895 29.03C321.205 28.91 321.465 28.745 321.675 28.535C321.895 28.315 322.065 28.065 322.185 27.785C322.305 27.495 322.365 27.18 322.365 26.84C322.365 26.48 322.305 26.155 322.185 25.865C322.075 25.575 321.91 25.325 321.69 25.115C321.48 24.905 321.23 24.75 320.94 24.65C320.65 24.54 320.335 24.485 319.995 24.485C319.625 24.485 319.29 24.55 318.99 24.68C318.7 24.8 318.445 24.97 318.225 25.19C318.015 25.4 317.855 25.65 317.745 25.94C317.635 26.22 317.58 26.51 317.58 26.81C317.58 27.17 317.63 27.495 317.73 27.785C317.84 28.075 317.995 28.33 318.195 28.55C318.395 28.76 318.635 28.925 318.915 29.045C319.205 29.155 319.535 29.21 319.905 29.21ZM319.08 23.27C318.82 23.63 318.645 23.87 318.555 23.99C318.825 23.81 319.115 23.67 319.425 23.57C319.735 23.47 320.075 23.42 320.445 23.42C320.895 23.42 321.32 23.495 321.72 23.645C322.12 23.785 322.47 24 322.77 24.29C323.07 24.57 323.305 24.92 323.475 25.34C323.655 25.75 323.745 26.215 323.745 26.735C323.745 27.255 323.65 27.735 323.46 28.175C323.28 28.605 323.02 28.985 322.68 29.315C322.35 29.645 321.945 29.905 321.465 30.095C320.995 30.275 320.485 30.365 319.935 30.365C319.365 30.365 318.855 30.275 318.405 30.095C317.955 29.915 317.57 29.66 317.25 29.33C316.93 29 316.68 28.605 316.5 28.145C316.33 27.675 316.245 27.155 316.245 26.585C316.245 26.095 316.35 25.575 316.56 25.025C316.78 24.465 317.13 23.87 317.61 23.24L320.67 19.115H321.15H322.395L319.08 23.27Z" fill="#888888"/>
<path d="M332.935 24.695C332.935 25.675 332.83 26.52 332.62 27.23C332.41 27.94 332.125 28.53 331.765 29C331.405 29.47 330.98 29.82 330.49 30.05C330 30.27 329.47 30.38 328.9 30.38C328.33 30.38 327.8 30.27 327.31 30.05C326.82 29.82 326.39 29.47 326.02 29C325.66 28.53 325.375 27.94 325.165 27.23C324.965 26.52 324.865 25.675 324.865 24.695C324.865 23.715 324.965 22.87 325.165 22.16C325.375 21.44 325.66 20.845 326.02 20.375C326.39 19.905 326.82 19.56 327.31 19.34C327.8 19.11 328.33 18.995 328.9 18.995C329.47 18.995 330 19.11 330.49 19.34C330.98 19.56 331.405 19.905 331.765 20.375C332.125 20.845 332.41 21.44 332.62 22.16C332.83 22.87 332.935 23.715 332.935 24.695ZM331.555 24.695C331.555 23.835 331.48 23.115 331.33 22.535C331.19 21.945 330.995 21.475 330.745 21.125C330.505 20.765 330.225 20.51 329.905 20.36C329.585 20.2 329.25 20.12 328.9 20.12C328.55 20.12 328.215 20.2 327.895 20.36C327.575 20.51 327.295 20.765 327.055 21.125C326.815 21.475 326.62 21.945 326.47 22.535C326.33 23.115 326.26 23.835 326.26 24.695C326.26 25.545 326.33 26.265 326.47 26.855C326.62 27.435 326.815 27.905 327.055 28.265C327.295 28.625 327.575 28.885 327.895 29.045C328.215 29.195 328.55 29.27 328.9 29.27C329.25 29.27 329.585 29.195 329.905 29.045C330.225 28.885 330.505 28.625 330.745 28.265C330.995 27.905 331.19 27.435 331.33 26.855C331.48 26.265 331.555 25.545 331.555 24.695Z" fill="#888888"/>
<path d="M336.411 25.625C335.651 25.625 335.041 25.345 334.581 24.785C334.131 24.225 333.906 23.385 333.906 22.265C333.906 21.145 334.131 20.315 334.581 19.775C335.041 19.225 335.651 18.95 336.411 18.95C337.181 18.95 337.796 19.225 338.256 19.775C338.716 20.315 338.946 21.145 338.946 22.265C338.946 23.385 338.716 24.225 338.256 24.785C337.796 25.345 337.181 25.625 336.411 25.625ZM336.411 24.695C336.831 24.695 337.171 24.505 337.431 24.125C337.691 23.745 337.821 23.125 337.821 22.265C337.821 21.405 337.691 20.795 337.431 20.435C337.171 20.065 336.831 19.88 336.411 19.88C336.001 19.88 335.666 20.065 335.406 20.435C335.146 20.805 335.016 21.415 335.016 22.265C335.016 23.125 335.146 23.745 335.406 24.125C335.666 24.505 336.001 24.695 336.411 24.695ZM342.681 18.95H343.866L337.806 30.35H336.606L342.681 18.95ZM344.031 30.32C343.271 30.32 342.656 30.045 342.186 29.495C341.726 28.935 341.496 28.095 341.496 26.975C341.496 25.855 341.726 25.025 342.186 24.485C342.656 23.935 343.271 23.66 344.031 23.66C344.791 23.66 345.401 23.935 345.861 24.485C346.321 25.025 346.551 25.855 346.551 26.975C346.551 28.095 346.321 28.935 345.861 29.495C345.401 30.045 344.791 30.32 344.031 30.32ZM344.031 29.39C344.451 29.39 344.786 29.205 345.036 28.835C345.296 28.455 345.426 27.835 345.426 26.975C345.426 26.115 345.296 25.5 345.036 25.13C344.786 24.76 344.451 24.575 344.031 24.575C343.611 24.575 343.271 24.76 343.011 25.13C342.751 25.5 342.621 26.115 342.621 26.975C342.621 27.835 342.751 28.455 343.011 28.835C343.271 29.205 343.611 29.39 344.031 29.39Z" fill="#888888"/>
<path d="M347.794 31.82C348.444 30.75 348.924 29.6 349.234 28.37C349.554 27.14 349.714 25.885 349.714 24.605C349.714 23.325 349.554 22.075 349.234 20.855C348.924 19.625 348.444 18.47 347.794 17.39L348.634 17C349.334 18.12 349.879 19.3 350.269 20.54C350.659 21.78 350.854 23.135 350.854 24.605C350.854 26.085 350.659 27.445 350.269 28.685C349.879 29.925 349.334 31.105 348.634 32.225L347.794 31.82Z" fill="#888888"/>
<path d="M484.95 25.7C484.21 25.42 483.56 25.02 483 24.5C482.45 23.98 482.03 23.375 481.74 22.685C481.45 23.465 481.015 24.145 480.435 24.725C479.855 25.295 479.17 25.73 478.38 26.03L477.75 25.04C478.25 24.86 478.705 24.62 479.115 24.32C479.535 24.01 479.89 23.66 480.18 23.27C480.48 22.88 480.71 22.46 480.87 22.01C481.03 21.56 481.11 21.095 481.11 20.615V20H478.125V18.995H485.31V20H482.34V20.615C482.34 21.065 482.415 21.505 482.565 21.935C482.725 22.355 482.945 22.745 483.225 23.105C483.515 23.465 483.86 23.79 484.26 24.08C484.66 24.36 485.11 24.585 485.61 24.755L484.95 25.7ZM481.095 29.975H488.835V30.98H479.865V26.795H481.095V29.975ZM490.23 21.935V22.955H488.235V27.65H487.005V17.825H488.235V21.935H490.23Z" fill="#888888"/>
<path d="M494.294 30.11H501.059V27.305H494.294V30.11ZM493.094 26.315H502.274V31.1H493.094V26.315ZM503.804 23.495V24.485H491.579V23.495H500.624C500.814 22.655 500.924 21.92 500.954 21.29C500.994 20.65 501.014 20.065 501.014 19.535H493.139V18.545H502.229V19.535C502.229 20.065 502.214 20.645 502.184 21.275C502.154 21.905 502.049 22.645 501.869 23.495H503.804Z" fill="#888888"/>
<path d="M508.183 32.315C507.493 31.195 506.953 30.015 506.563 28.775C506.173 27.535 505.978 26.175 505.978 24.695C505.978 23.225 506.173 21.87 506.563 20.63C506.953 19.39 507.493 18.21 508.183 17.09L509.038 17.48C508.378 18.56 507.893 19.715 507.583 20.945C507.273 22.165 507.118 23.415 507.118 24.695C507.118 25.975 507.273 27.23 507.583 28.46C507.893 29.69 508.378 30.84 509.038 31.91L508.183 32.315Z" fill="#888888"/>
<path d="M510.731 22.13C510.801 21.63 510.941 21.185 511.151 20.795C511.361 20.405 511.621 20.08 511.931 19.82C512.251 19.55 512.616 19.345 513.026 19.205C513.436 19.065 513.876 18.995 514.346 18.995C514.826 18.995 515.261 19.065 515.651 19.205C516.051 19.345 516.396 19.54 516.686 19.79C516.976 20.04 517.201 20.34 517.361 20.69C517.521 21.03 517.601 21.415 517.601 21.845C517.601 22.195 517.556 22.51 517.466 22.79C517.376 23.07 517.246 23.315 517.076 23.525C516.906 23.725 516.701 23.9 516.461 24.05C516.221 24.19 515.956 24.31 515.666 24.41C516.386 24.59 516.931 24.91 517.301 25.37C517.671 25.82 517.856 26.385 517.856 27.065C517.856 27.565 517.756 28.02 517.556 28.43C517.366 28.84 517.101 29.19 516.761 29.48C516.421 29.76 516.026 29.98 515.576 30.14C515.136 30.29 514.656 30.365 514.136 30.365C513.546 30.365 513.046 30.29 512.636 30.14C512.226 29.99 511.871 29.785 511.571 29.525C511.281 29.265 511.041 28.96 510.851 28.61C510.671 28.26 510.516 27.88 510.386 27.47L511.616 26.96C511.646 27.13 511.721 27.355 511.841 27.635C511.991 27.945 512.171 28.215 512.381 28.445C512.591 28.675 512.826 28.855 513.086 28.985C513.356 29.115 513.701 29.18 514.121 29.18C514.511 29.18 514.851 29.115 515.141 28.985C515.441 28.855 515.686 28.695 515.876 28.505C516.066 28.305 516.211 28.085 516.311 27.845C516.411 27.595 516.461 27.345 516.461 27.095C516.461 26.795 516.421 26.52 516.341 26.27C516.261 26.02 516.116 25.805 515.906 25.625C515.706 25.445 515.416 25.305 515.036 25.205C514.666 25.095 514.191 25.04 513.611 25.04V24.05C514.091 24.04 514.496 23.99 514.826 23.9C515.166 23.8 515.441 23.665 515.651 23.495C515.861 23.315 516.011 23.105 516.101 22.865C516.191 22.625 516.236 22.36 516.236 22.07C516.236 21.76 516.186 21.485 516.086 21.245C515.996 21.005 515.861 20.81 515.681 20.66C515.511 20.51 515.301 20.395 515.051 20.315C514.811 20.235 514.551 20.195 514.271 20.195C513.991 20.195 513.731 20.24 513.491 20.33C513.261 20.41 513.051 20.525 512.861 20.675C512.681 20.815 512.531 20.985 512.411 21.185C512.291 21.385 512.206 21.605 512.156 21.845C512.116 22.045 512.096 22.215 512.096 22.355L510.731 22.13Z" fill="#888888"/>
<path d="M527.137 24.695C527.137 25.675 527.032 26.52 526.822 27.23C526.612 27.94 526.327 28.53 525.967 29C525.607 29.47 525.182 29.82 524.692 30.05C524.202 30.27 523.672 30.38 523.102 30.38C522.532 30.38 522.002 30.27 521.512 30.05C521.022 29.82 520.592 29.47 520.222 29C519.862 28.53 519.577 27.94 519.367 27.23C519.167 26.52 519.067 25.675 519.067 24.695C519.067 23.715 519.167 22.87 519.367 22.16C519.577 21.44 519.862 20.845 520.222 20.375C520.592 19.905 521.022 19.56 521.512 19.34C522.002 19.11 522.532 18.995 523.102 18.995C523.672 18.995 524.202 19.11 524.692 19.34C525.182 19.56 525.607 19.905 525.967 20.375C526.327 20.845 526.612 21.44 526.822 22.16C527.032 22.87 527.137 23.715 527.137 24.695ZM525.757 24.695C525.757 23.835 525.682 23.115 525.532 22.535C525.392 21.945 525.197 21.475 524.947 21.125C524.707 20.765 524.427 20.51 524.107 20.36C523.787 20.2 523.452 20.12 523.102 20.12C522.752 20.12 522.417 20.2 522.097 20.36C521.777 20.51 521.497 20.765 521.257 21.125C521.017 21.475 520.822 21.945 520.672 22.535C520.532 23.115 520.462 23.835 520.462 24.695C520.462 25.545 520.532 26.265 520.672 26.855C520.822 27.435 521.017 27.905 521.257 28.265C521.497 28.625 521.777 28.885 522.097 29.045C522.417 29.195 522.752 29.27 523.102 29.27C523.452 29.27 523.787 29.195 524.107 29.045C524.427 28.885 524.707 28.625 524.947 28.265C525.197 27.905 525.392 27.435 525.532 26.855C525.682 26.265 525.757 25.545 525.757 24.695Z" fill="#888888"/>
<path d="M530.612 25.625C529.852 25.625 529.242 25.345 528.782 24.785C528.332 24.225 528.107 23.385 528.107 22.265C528.107 21.145 528.332 20.315 528.782 19.775C529.242 19.225 529.852 18.95 530.612 18.95C531.382 18.95 531.997 19.225 532.457 19.775C532.917 20.315 533.147 21.145 533.147 22.265C533.147 23.385 532.917 24.225 532.457 24.785C531.997 25.345 531.382 25.625 530.612 25.625ZM530.612 24.695C531.032 24.695 531.372 24.505 531.632 24.125C531.892 23.745 532.022 23.125 532.022 22.265C532.022 21.405 531.892 20.795 531.632 20.435C531.372 20.065 531.032 19.88 530.612 19.88C530.202 19.88 529.867 20.065 529.607 20.435C529.347 20.805 529.217 21.415 529.217 22.265C529.217 23.125 529.347 23.745 529.607 24.125C529.867 24.505 530.202 24.695 530.612 24.695ZM536.882 18.95H538.067L532.007 30.35H530.807L536.882 18.95ZM538.232 30.32C537.472 30.32 536.857 30.045 536.387 29.495C535.927 28.935 535.697 28.095 535.697 26.975C535.697 25.855 535.927 25.025 536.387 24.485C536.857 23.935 537.472 23.66 538.232 23.66C538.992 23.66 539.602 23.935 540.062 24.485C540.522 25.025 540.752 25.855 540.752 26.975C540.752 28.095 540.522 28.935 540.062 29.495C539.602 30.045 538.992 30.32 538.232 30.32ZM538.232 29.39C538.652 29.39 538.987 29.205 539.237 28.835C539.497 28.455 539.627 27.835 539.627 26.975C539.627 26.115 539.497 25.5 539.237 25.13C538.987 24.76 538.652 24.575 538.232 24.575C537.812 24.575 537.472 24.76 537.212 25.13C536.952 25.5 536.822 26.115 536.822 26.975C536.822 27.835 536.952 28.455 537.212 28.835C537.472 29.205 537.812 29.39 538.232 29.39Z" fill="#888888"/>
<path d="M541.996 31.82C542.646 30.75 543.126 29.6 543.436 28.37C543.756 27.14 543.916 25.885 543.916 24.605C543.916 23.325 543.756 22.075 543.436 20.855C543.126 19.625 542.646 18.47 541.996 17.39L542.836 17C543.536 18.12 544.081 19.3 544.471 20.54C544.861 21.78 545.056 23.135 545.056 24.605C545.056 26.085 544.861 27.445 544.471 28.685C544.081 29.925 543.536 31.105 542.836 32.225L541.996 31.82Z" fill="#888888"/>
<path d="M666.88 25.59C666.37 25.48 665.86 25.315 665.35 25.095C664.84 24.865 664.36 24.59 663.91 24.27C663.47 23.95 663.07 23.585 662.71 23.175C662.35 22.765 662.06 22.32 661.84 21.84C661.62 22.32 661.33 22.765 660.97 23.175C660.62 23.585 660.22 23.95 659.77 24.27C659.32 24.59 658.84 24.865 658.33 25.095C657.83 25.315 657.32 25.48 656.8 25.59L656.29 24.57C656.88 24.47 657.465 24.275 658.045 23.985C658.635 23.695 659.16 23.345 659.62 22.935C660.09 22.525 660.47 22.065 660.76 21.555C661.05 21.035 661.195 20.495 661.195 19.935V18.9H662.485V19.935C662.485 20.495 662.63 21.035 662.92 21.555C663.21 22.065 663.59 22.525 664.06 22.935C664.53 23.345 665.055 23.695 665.635 23.985C666.225 24.275 666.815 24.47 667.405 24.57L666.88 25.59ZM668.005 28.695V29.7H655.795V28.695H661.225V25.425H662.455V28.695H668.005Z" fill="#888888"/>
<path d="M675.654 19.53C675.144 19.53 674.679 19.575 674.259 19.665C673.839 19.755 673.474 19.885 673.164 20.055C672.864 20.225 672.629 20.43 672.459 20.67C672.299 20.9 672.219 21.165 672.219 21.465C672.219 21.765 672.299 22.035 672.459 22.275C672.629 22.515 672.864 22.72 673.164 22.89C673.474 23.06 673.839 23.19 674.259 23.28C674.679 23.37 675.144 23.415 675.654 23.415C676.164 23.415 676.629 23.37 677.049 23.28C677.479 23.19 677.844 23.06 678.144 22.89C678.454 22.72 678.689 22.515 678.849 22.275C679.019 22.035 679.104 21.765 679.104 21.465C679.104 21.165 679.019 20.9 678.849 20.67C678.689 20.43 678.454 20.225 678.144 20.055C677.844 19.885 677.479 19.755 677.049 19.665C676.629 19.575 676.164 19.53 675.654 19.53ZM675.654 24.405C674.954 24.405 674.314 24.34 673.734 24.21C673.164 24.07 672.669 23.875 672.249 23.625C671.839 23.365 671.519 23.055 671.289 22.695C671.069 22.325 670.959 21.915 670.959 21.465C670.959 21.015 671.069 20.61 671.289 20.25C671.519 19.89 671.839 19.585 672.249 19.335C672.669 19.075 673.164 18.88 673.734 18.75C674.314 18.61 674.954 18.54 675.654 18.54C676.354 18.54 676.994 18.61 677.574 18.75C678.154 18.88 678.649 19.075 679.059 19.335C679.469 19.585 679.789 19.89 680.019 20.25C680.249 20.61 680.364 21.015 680.364 21.465C680.364 21.915 680.249 22.325 680.019 22.695C679.789 23.055 679.469 23.365 679.059 23.625C678.649 23.875 678.154 24.07 677.574 24.21C676.994 24.34 676.354 24.405 675.654 24.405ZM681.774 26.67H678.594V31.455H677.349V26.67H673.974V31.455H672.729V26.67H669.594V25.665H681.774V26.67Z" fill="#888888"/>
<path d="M693.233 25.335V18.015H694.463V28.17H693.233V26.31H690.308V25.335H693.233ZM687.083 24.255C686.423 24.285 685.788 24.305 685.178 24.315C684.568 24.325 683.993 24.33 683.453 24.33L683.288 23.325C684.158 23.315 685.103 23.305 686.123 23.295C687.153 23.275 688.198 23.225 689.258 23.145C689.398 22.405 689.483 21.76 689.513 21.21C689.553 20.66 689.578 20.195 689.588 19.815H684.518V18.825H690.788V19.335C690.788 19.715 690.773 20.215 690.743 20.835C690.723 21.455 690.643 22.19 690.503 23.04C690.763 23.02 691.018 23 691.268 22.98C691.528 22.95 691.778 22.915 692.018 22.875L692.108 23.76C691.498 23.87 690.873 23.96 690.233 24.03C689.593 24.1 688.953 24.155 688.313 24.195V27.3H687.083V24.255ZM694.793 30.15V31.155H685.283V27.06H686.498V30.15H694.793Z" fill="#888888"/>
<path d="M711.556 18V31.485H710.326V18H711.556ZM704.461 19.035C704.961 19.035 705.421 19.145 705.841 19.365C706.261 19.585 706.621 19.9 706.921 20.31C707.221 20.72 707.456 21.215 707.626 21.795C707.796 22.365 707.881 23.01 707.881 23.73C707.881 24.45 707.796 25.1 707.626 25.68C707.456 26.25 707.221 26.74 706.921 27.15C706.621 27.56 706.261 27.875 705.841 28.095C705.421 28.315 704.961 28.425 704.461 28.425C703.961 28.425 703.501 28.315 703.081 28.095C702.661 27.875 702.301 27.56 702.001 27.15C701.701 26.74 701.466 26.25 701.296 25.68C701.126 25.1 701.041 24.45 701.041 23.73C701.041 23.01 701.126 22.365 701.296 21.795C701.466 21.215 701.701 20.72 702.001 20.31C702.301 19.9 702.661 19.585 703.081 19.365C703.501 19.145 703.961 19.035 704.461 19.035ZM704.461 20.145C704.131 20.145 703.826 20.23 703.546 20.4C703.276 20.57 703.041 20.81 702.841 21.12C702.641 21.43 702.486 21.81 702.376 22.26C702.266 22.7 702.211 23.19 702.211 23.73C702.211 24.28 702.266 24.775 702.376 25.215C702.486 25.655 702.641 26.035 702.841 26.355C703.041 26.665 703.276 26.905 703.546 27.075C703.826 27.245 704.131 27.33 704.461 27.33C704.791 27.33 705.091 27.245 705.361 27.075C705.631 26.905 705.866 26.665 706.066 26.355C706.266 26.035 706.421 25.655 706.531 25.215C706.641 24.775 706.696 24.28 706.696 23.73C706.696 23.19 706.641 22.7 706.531 22.26C706.421 21.81 706.266 21.43 706.066 21.12C705.866 20.81 705.631 20.57 705.361 20.4C705.091 20.23 704.791 20.145 704.461 20.145Z" fill="#888888"/>
<path d="M724.185 21.72V18.015H725.43V27.87H724.185V22.725H721.485V21.72H724.185ZM721.665 25.845C720.915 25.575 720.26 25.175 719.7 24.645C719.14 24.105 718.715 23.49 718.425 22.8C718.135 23.57 717.695 24.25 717.105 24.84C716.515 25.42 715.825 25.855 715.035 26.145L714.39 25.185C714.89 25.005 715.345 24.765 715.755 24.465C716.175 24.155 716.535 23.81 716.835 23.43C717.135 23.04 717.365 22.62 717.525 22.17C717.695 21.72 717.78 21.255 717.78 20.775V20.1H714.78V19.095H721.965V20.1H719.01V20.76C719.01 21.2 719.09 21.63 719.25 22.05C719.41 22.47 719.63 22.86 719.91 23.22C720.2 23.58 720.545 23.905 720.945 24.195C721.345 24.485 721.79 24.715 722.28 24.885L721.665 25.845ZM725.805 30.15V31.155H716.82V27H718.065V30.15H725.805Z" fill="#888888"/>
<path d="M732.089 27.435C732.399 27.435 732.679 27.385 732.929 27.285C733.189 27.175 733.414 27.03 733.604 26.85C733.794 26.67 733.939 26.455 734.039 26.205C734.149 25.945 734.204 25.665 734.204 25.365C734.204 25.065 734.149 24.79 734.039 24.54C733.939 24.28 733.794 24.06 733.604 23.88C733.414 23.69 733.189 23.545 732.929 23.445C732.679 23.335 732.399 23.28 732.089 23.28C731.789 23.28 731.509 23.335 731.249 23.445C730.989 23.545 730.764 23.69 730.574 23.88C730.394 24.06 730.249 24.28 730.139 24.54C730.039 24.79 729.989 25.065 729.989 25.365C729.989 25.665 730.039 25.945 730.139 26.205C730.249 26.455 730.394 26.67 730.574 26.85C730.764 27.03 730.989 27.175 731.249 27.285C731.509 27.385 731.789 27.435 732.089 27.435ZM732.089 22.26C732.569 22.26 733.009 22.34 733.409 22.5C733.809 22.65 734.154 22.865 734.444 23.145C734.744 23.415 734.974 23.74 735.134 24.12C735.294 24.5 735.374 24.915 735.374 25.365C735.374 25.825 735.294 26.245 735.134 26.625C734.974 27.005 734.744 27.33 734.444 27.6C734.154 27.87 733.809 28.08 733.409 28.23C733.009 28.38 732.569 28.455 732.089 28.455C731.619 28.455 731.184 28.38 730.784 28.23C730.384 28.08 730.039 27.87 729.749 27.6C729.459 27.33 729.234 27.005 729.074 26.625C728.914 26.245 728.834 25.825 728.834 25.365C728.834 24.915 728.914 24.5 729.074 24.12C729.234 23.74 729.459 23.415 729.749 23.145C730.039 22.865 730.384 22.65 730.784 22.5C731.184 22.34 731.619 22.26 732.089 22.26ZM732.689 20.16H736.004V21.15H728.069V20.16H731.459V18.165H732.689V20.16ZM740.714 24.57H738.509V31.455H737.279V18.015H738.509V23.535H740.714V24.57Z" fill="#888888"/>
<path d="M749.037 19.455C749.037 20.425 748.917 21.365 748.677 22.275C748.447 23.175 748.082 24.03 747.582 24.84C747.082 25.65 746.437 26.4 745.647 27.09C744.857 27.78 743.902 28.4 742.782 28.95L742.122 27.945C743.932 27.085 745.297 26.02 746.217 24.75C747.137 23.48 747.662 22.045 747.792 20.445H742.737V19.455H749.037ZM752.982 18V31.455H751.752V18H752.982Z" fill="#888888"/>
<path d="M200 0L215 25L200 50M400 0L415 25L400 50M600 0L615 25L600 50" stroke="#BBBBBB"/>
</g>
<defs>
<clipPath id="clip0">
<rect width="800" height="50" fill="white"/>
</clipPath>
</defs>
</svg>
